<svg xmlns="http://www.w3.org/2000/svg" width="1400" height="360" viewBox="0 0 1400 360">
  <rect width="1400" height="360" rx="42" fill="#F4F7FA"/>
  <g transform="translate(30 25) scale(.6)">
  <rect x="20" y="20" width="472" height="472" rx="92" fill="none"/>
  <g>
    <path d="M82 142 L142 82 H370 L430 142 V342 L370 402 H142 L82 342 Z" fill="none" stroke="#E10D1A" stroke-width="36" stroke-linejoin="round"/>
    <path d="M210 174 L344 256 L210 338 Z" fill="#F4F7FA"/>
      <path d="M364 166 C394 182 412 209 416 240" fill="none" stroke="#00D8FF" stroke-width="24" stroke-linecap="round"/>
      <path d="M380 116 C435 146 466 194 470 250" fill="none" stroke="#00D8FF" stroke-width="18" stroke-linecap="round" opacity=".78"/>
    <circle cx="140" cy="348" r="18" fill="#FF6A00"/>
  </g>
</g>
  <text x="390" y="165" fill="#07090C" font-family="Arial, Helvetica, sans-serif" font-size="116" font-weight="900" letter-spacing="3">CARBON<tspan fill="#E10D1A">CAST</tspan></text>
  <line x1="398" y1="211" x2="572" y2="211" stroke="#00D8FF" stroke-width="8"/>
  <text x="740" y="232" text-anchor="middle" fill="#00D8FF" font-family="Arial, Helvetica, sans-serif" font-size="58" font-weight="700" letter-spacing="24">IPTV</text>
  <line x1="905" y1="211" x2="1080" y2="211" stroke="#00D8FF" stroke-width="8"/>
  <text x="400" y="294" fill="#39434D" font-family="Arial, Helvetica, sans-serif" font-size="29" font-weight="600" letter-spacing="8">STREAM MORE. <tspan fill="#E10D1A">LIVE</tspan> BETTER.</text>
  <circle cx="1042" cy="285" r="7" fill="#FF6A00"/>
</svg>