<svg xmlns="http://www.w3.org/2000/svg" width="1920" height="1080" viewBox="0 0 1920 1080">
  <defs>
    <pattern id="carbon" width="32" height="32" patternUnits="userSpaceOnUse">
      <rect width="32" height="32" fill="#07090C"/>
      <path d="M-8 8 L8 -8 M0 16 L16 0 M8 24 L24 8 M16 32 L32 16 M24 40 L40 24" stroke="#171E25" stroke-width="7" opacity=".8"/>
      <path d="M-8 24 L24 -8 M0 32 L32 0 M8 40 L40 8" stroke="#0C1116" stroke-width="7" opacity=".92"/>
    </pattern>
    <radialGradient id="glow" cx="50%" cy="48%" r="60%"><stop offset="0" stop-color="#171E25"/><stop offset="1" stop-color="#07090C" stop-opacity="0"/></radialGradient>
    <linearGradient id="bar" x1="0" x2="1"><stop stop-color="#E10D1A"/><stop offset=".58" stop-color="#FF6A00"/><stop offset="1" stop-color="#00D8FF"/></linearGradient>
  </defs>
  <rect width="1920" height="1080" fill="url(#carbon)"/>
  <rect width="1920" height="1080" fill="url(#glow)"/>
  <path d="M0 194.4 L172.79999999999998 194.4 L307.2 291.6" fill="none" stroke="#E10D1A" stroke-width="2" opacity=".7"/>
  <path d="M1920 885.5999999999999 L1747.2 885.5999999999999 L1612.8 788.4" fill="none" stroke="#E10D1A" stroke-width="2" opacity=".7"/>
  <path d="M0 972.0 H441.6" stroke="#00D8FF" stroke-width="2" opacity=".85"/>
  <path d="M1478.4 108.0 H1920" stroke="#FF6A00" stroke-width="2" opacity=".8"/>
  <g transform="translate(847.0 183.60000000000002) scale(0.44140625)">
  <rect x="20" y="20" width="472" height="472" rx="92" fill="none"/>
  <g>
    <path d="M82 142 L142 82 H370 L430 142 V342 L370 402 H142 L82 342 Z" fill="none" stroke="#E10D1A" stroke-width="36" stroke-linejoin="round"/>
    <path d="M210 174 L344 256 L210 338 Z" fill="#F4F7FA"/>
      <path d="M364 166 C394 182 412 209 416 240" fill="none" stroke="#00D8FF" stroke-width="24" stroke-linecap="round"/>
      <path d="M380 116 C435 146 466 194 470 250" fill="none" stroke="#00D8FF" stroke-width="18" stroke-linecap="round" opacity=".78"/>
    <circle cx="140" cy="348" r="18" fill="#FF6A00"/>
  </g>
</g>
  <text x="960.0" y="458.20000000000005" text-anchor="middle" fill="#F4F7FA" font-family="Arial, Helvetica, sans-serif" font-size="81.0" font-weight="900" letter-spacing="2">CARBON<tspan fill="#E10D1A">CAST</tspan></text>
  <text x="960.0" y="539.2" text-anchor="middle" fill="#00D8FF" font-family="Arial, Helvetica, sans-serif" font-size="41.04" font-weight="700" letter-spacing="25">IPTV</text>
  <text x="960.0" y="601.84" text-anchor="middle" fill="#8C98A5" font-family="Arial, Helvetica, sans-serif" font-size="25.92" font-weight="600" letter-spacing="6">LIVE CHANNELS. FAST ACCESS.</text>
  <circle cx="1401.6" cy="594.2800000000001" r="6" fill="#FF6A00"/>
  <text x="960.0" y="793.8" text-anchor="middle" fill="#F4F7FA" font-family="Arial, Helvetica, sans-serif" font-size="19.439999999999998" letter-spacing="6">LOADING</text>
  <rect x="537.6" y="820.8" width="844.8" height="6.48" rx="8" fill="#26313C"/>
  <rect x="537.6" y="820.8" width="556.8" height="6.48" rx="8" fill="url(#bar)"/>
  <circle cx="1094.3999999999999" cy="824.04" r="5" fill="#00D8FF"/>
</svg>